<?xml version="1.0" encoding="UTF-8" standalone="no"?>
<!-- Created with Inkscape (http://www.inkscape.org/) -->

<svg
   version="1.1"
   id="svg32"
   width="2217.0132"
   height="2223.6726"
   viewBox="0 0 2217.0132 2223.6726"
   sodipodi:docname="a7c6b239-d295-40c8-88dc-a7f997045415.jpeg"
   xmlns:inkscape="http://www.inkscape.org/namespaces/inkscape"
   xmlns:sodipodi="http://sodipodi.sourceforge.net/DTD/sodipodi-0.dtd"
   xmlns="http://www.w3.org/2000/svg"
   xmlns:svg="http://www.w3.org/2000/svg">
  <defs
     id="defs36" />
  <sodipodi:namedview
     id="namedview34"
     pagecolor="#ffffff"
     bordercolor="#000000"
     borderopacity="0.25"
     inkscape:showpageshadow="2"
     inkscape:pageopacity="0.0"
     inkscape:pagecheckerboard="0"
     inkscape:deskcolor="#d1d1d1"
     showgrid="false" />
  <g
     inkscape:groupmode="layer"
     inkscape:label="Image"
     id="g38"
     transform="translate(-5.3096905,1.3500998)">
    <ellipse
       style="fill:#29a7df;fill-opacity:1;stroke:#c82525;stroke-width:2.76685;stroke-opacity:0"
       id="path473"
       cx="1113.8162"
       cy="1110.4862"
       rx="1107.123"
       ry="1110.4529" />
    <path
       style="fill:#ffffff;fill-opacity:1;stroke:#c82525;stroke-width:2.7;stroke-opacity:0"
       d="M 585.00317,1644.7101 C 494.23528,1516.0089 468.51786,1342.5491 475.11997,1185.1985 489.08356,852.39911 656.93817,542.37974 788.1206,236.20726 820.25007,161.21886 823.21153,34.728866 903.52078,20.376609 c 13.08656,-2.33873 19.40524,-5.026383 35.88059,-7.581615 21.72727,-3.3697734 56.01507,-7.7579158 78.03323,-9.5630817 35.7008,-2.92694147 71.5719,-4.5280138 108.3052,-1.4201654 235.4396,19.9195571 329.1818,351.3519231 424.9037,567.3749031 118.1693,266.6819 140.9945,568.51285 166.4897,859.08685 11.8373,134.9115 11.5647,272.0369 -6.6596,406.2349 -11.6105,85.4963 -10.0467,183.9926 -64.931,250.5669 -26.6516,32.3282 -136.7179,63.9426 -174.056,76.5259 -42.3359,14.2677 -63.1468,18.2552 -62.5675,19.4138 0,0 -635.05043,-268.5096 -823.91593,-536.3049 z"
       id="path1189"
       sodipodi:nodetypes="sssssssssssscs" />
    <path
       style="fill:#29a7df;stroke:none;stroke-width:1.33333"
       d="m 437.53633,1666.5911 564.37757,506.5695 400.7926,9.5443 60.6812,-18.9012 c -5.6267,-19.5333 -9.4831,-29.3819 -17.8564,-47.9152 -15.0134,-33.2134 -5.9882,-17.2218 -20.7482,-50.5551 C 1377.9431,1959.56 1331.0538,1853.8 1284.2751,1748 1162.6578,1472.9334 1046.6605,1194.5174 917.99646,922.66668 c -8.75734,10.5693 -12.79067,25.2493 -19.092,37.3333 -17.25467,33.0854 -34.22667,66.43872 -50.58534,100.00002 -28.172,57.8027 -58.036,116.1374 -74.47733,178.6667 -30.15067,114.6667 -14.744,244.92 62.10533,338.6667 38.7,47.2133 91.368,79.9066 150.04934,95.9866 18.71064,5.12 38.08804,8.16 57.33334,10.4667 7.4307,0.8933 19.936,-0.3733 26.1467,4.1333 11.9813,8.6934 18.472,37.4934 24.864,50.7467 23.036,47.7333 41.1586,98.0267 64.9893,145.3333 -92.8227,0 -183.15868,-12.6 -269.33334,-48.7733 -68.38534,-28.6933 -125.23734,-72.44 -177.33334,-124.56 -41.28133,-41.2933 -75.34133,-92.6267 -100.22266,-145.3333 -52.98534,-112.2534 -70.052,-237.148 -43.212,-358.6667 16.39466,-74.224 54.732,-141.9214 88.43866,-209.33332 60.45467,-120.908 127,-238.5267 191.408,-357.3334 18.10534,-33.3986 36.56134,-66.6 54.66667,-100 10.10533,-18.644 22.992,-37.3773 30.25467,-57.3333 h 2.66666 c 3.71067,15.6213 13.00534,30.7173 19.592,45.3333 12.78934,28.3734 25.35067,56.8654 37.928,85.3334 40.73738,92.2093 81.01338,184.612 120.57738,277.3333 125.9853,295.26272 250.476,591.34672 379.4226,885.33332 46.9734,107.1067 55.8477,120.5126 100.7944,228.4859 12.0667,28.9867 29.063,54.4968 43.9548,83.1349 79.1252,-56.1998 40.5126,-38.2157 185.8617,-134.7194 L 1721.2011,399.57527 1223.7883,16.72812 1116.6631,2.4930044e-6 C 1121.8151,29.924002 1143.0098,60.390932 1154.9165,88.226402 c 29.372,68.669598 59.568,137.173598 90.668,205.106938 75.4613,164.82804 146.5186,331.71464 220.2253,497.33334 32.8,73.7053 66.4267,147.1227 98.0933,221.33332 19.3867,45.4347 41.7867,88.94 53.2267,137.3334 30.96,131.0733 12.76,270.6133 -28.4667,397.3333 l -56.56,-125.3333 -93.1866,-208 L 1082.4045,419.99998 942.34046,108 907.73779,30.666662 903.03551,20.415605 867.06806,29.461081 829.11352,49.44492 C 397.76321,133.60545 495.42571,1229.3432 437.53633,1666.5911 Z"
       id="path323"
       sodipodi:nodetypes="ccccccccccccccscccccccccccccccscccccccccccccccccccc" />
  </g>
</svg>
